<svg version="1.0" xmlns="http://www.w3.org/2000/svg" width="682.667" height="682.667" viewBox="0 0 512 512"><path d="M239 1.5c-12.9 2.9-17.3 5-58.5 29-31.5 18.2-52.4 30.4-57.7 33.3-6.6 3.8-14.3 8.3-15.8 9.2-.8.5-6.4 3.7-12.5 7.2-6 3.4-11.2 6.4-11.5 6.7-.3.4-2.5 1.7-5 3-12.2 6.6-27.3 19.6-36.1 31.1-4.5 5.9-5.2 6.8-6.7 8.5-.6.7-1.2 1.8-1.2 2.3 0 .6-.4 1.2-.8 1.4-1.1.4-7.4 13.7-8.3 17.3 0 .2-.6 2.6-1.3 5.2-.9 3.6-1.2 28.4-1.1 101.3.2 103-.1 96.6 4.8 112 1.5 4.6 4.5 10.5 7.8 15.2 1.1 1.4 1.9 2.9 1.9 3.2 0 1.3 16.2 18.6 17.4 18.6.3 0 2.1 1.5 4.2 3.4C62.5 413 85 427 86.9 427c.6 0 1.1.4 1.1 1 0 .5.5 1 1.1 1 .6 0 7.1 3.6 14.6 8 7.4 4.4 13.7 8 13.9 8 .2 0 3.2 1.7 6.6 3.8 3.5 2.1 7 4.2 7.8 4.6.8.4 2.4 1.2 3.5 1.9s3.6 2.1 5.5 3.3c1.9 1.2 11.6 6.8 21.5 12.4 9.9 5.7 18.2 10.8 18.3 11.2.2.4.8.8 1.3.8 1 0 11.5 5.8 26.9 15 8.3 4.9 19.8 9.9 26.5 11.6 1.7.4 3.7.9 4.5 1.2.8.2 7.4.6 14.5.8 13.2.3 19-.5 28.5-4 2.5-1 5.7-2.1 7.1-2.5 1.4-.5 4.4-2 6.7-3.5 2.3-1.4 4.4-2.6 4.7-2.6.3 0 3.8-2 7.8-4.4 3.9-2.3 10.1-6 13.7-8 3.6-2 7.2-4.1 8-4.6 4.2-2.6 18.9-11 19.3-11 .3 0 2.9-1.6 5.8-3.5 3-1.9 5.7-3.5 6.2-3.5.4 0 2-.8 3.5-1.8 3.1-2.2 12.6-7.8 19.3-11.5 7.5-4.1 9.4-5.2 9.9-5.7.6-.6 5.4-3.3 10-5.6 1.9-1 3.7-2.1 4-2.4.3-.3 2.1-1.4 4-2.4 3.6-1.8 4-2 12.5-7.1 2.7-1.7 5.9-3.5 7-4.2 1.1-.7 2.9-1.6 4-2.2 1.1-.5 3.7-2.1 5.8-3.5 2.1-1.4 4-2.6 4.4-2.6 1 0 12-9.2 18.7-15.7 10.2-10 19-24.9 22.2-37.8.2-.6.6-2.1 1-3.5.3-1.4.7-46.3.8-99.8.1-74.5-.1-98.7-1.1-103.5-1.7-8.3-8-20.9-15.6-30.9-5.8-7.7-22.2-24.8-23.8-24.8-.4 0-2-1.1-3.6-2.4-1.5-1.2-4.8-3.4-7.3-4.8s-18.5-10.7-35.7-20.7C385.1 61.2 370.6 53 370.1 53c-.5 0-1.1-.3-1.3-.8-.4-.9-28.6-17.2-29.9-17.2-.5 0-.9-.5-.9-1 0-.6-.5-1-1-1-.6 0-2.7-1.1-4.8-2.3-2-1.3-5.7-3.5-8.2-4.9-2.5-1.4-6.1-3.4-8.1-4.6-2-1.1-4.7-2.6-6-3.4-1.3-.7-3.1-1.8-3.9-2.5-2.4-1.9-17.6-9.2-22.8-11-12.6-4.3-32-5.5-44.2-2.8z"/></svg>