<svg xmlns="http://www.w3.org/2000/svg" xmlns:xlink="http://www.w3.org/1999/xlink"><symbol viewBox="0 0 20.5 37.1" id="arr"><path d="M20.2 17.9L1.8.3C1.1-.3 0 .1 0 1.1v9.8l6 4.6v6.2l-6 4.6v9.8c0 .9 1.1 1.4 1.8.8l18.4-17.5c.4-.4.4-1.1 0-1.5z"/></symbol><symbol viewBox="0 0 10 10" id="close" xmlns="http://www.w3.org/2000/svg"><path fill-rule="evenodd" clip-rule="evenodd" d="M.293.293a1 1 0 011.414 0L5 3.586 8.293.293a1 1 0 011.414 1.414L6.414 5l3.293 3.293a1 1 0 01-1.414 1.414L5 6.414 1.707 9.707A1 1 0 01.293 8.293L3.586 5 .293 1.707a1 1 0 010-1.414z"/></symbol><symbol viewBox="0 0 32 32" id="discord" xmlns="http://www.w3.org/2000/svg"><path d="M25.718 6.977a22.803 22.803 0 00-5.776-1.816c-.25.45-.54 1.055-.74 1.537a21.208 21.208 0 00-6.403 0c-.2-.482-.497-1.087-.748-1.537a22.74 22.74 0 00-5.781 1.82c-3.656 5.525-4.647 10.913-4.152 16.225 2.425 1.81 4.775 2.91 7.085 3.63.57-.785 1.08-1.62 1.518-2.499a14.92 14.92 0 01-2.39-1.163c.2-.148.397-.304.586-.463 4.607 2.155 9.613 2.155 14.165 0 .192.16.388.315.586.463-.758.457-1.56.848-2.394 1.165.438.878.945 1.715 1.517 2.5 2.313-.72 4.665-1.82 7.09-3.633.58-6.158-.994-11.496-4.163-16.23zm-14.37 12.962c-1.383 0-2.517-1.291-2.517-2.864 0-1.572 1.11-2.866 2.517-2.866 1.407 0 2.542 1.292 2.517 2.866.003 1.573-1.11 2.864-2.517 2.864zm9.303 0c-1.383 0-2.517-1.291-2.517-2.864 0-1.572 1.11-2.866 2.517-2.866 1.407 0 2.541 1.292 2.517 2.866 0 1.573-1.11 2.864-2.517 2.864z"/></symbol><symbol viewBox="0 0 24 24" id="facebook" xmlns="http://www.w3.org/2000/svg"><path d="M13.656 21.118H9.678v-9.917h-2.71V7.973h2.71V5.675C9.678 2.953 10.876 1 14.843 1c.84 0 2.157.17 2.157.17v2.997h-1.384c-1.41 0-1.96.429-1.96 1.615v2.19h3.291l-.293 3.23h-2.998v9.916z"/></symbol><symbol viewBox="0 0 33 32" id="facebook2" xmlns="http://www.w3.org/2000/svg"><path d="M14.14 2.096c.184-.025.455-.056.601-.07.146-.012.688-.024 1.204-.026a22.36 22.36 0 011.274.024 15.495 15.495 0 011.442.201l.415.083c.066.014.287.069.49.122a15.832 15.832 0 011.483.479c.173.067.434.176.58.24a16.908 16.908 0 011.428.733c.193.112.502.306.687.43.184.123.474.329.644.457.169.128.471.37.672.537a15.928 15.928 0 011.626 1.63c.17.202.417.515.552.696a16.109 16.109 0 01.95 1.457c.1.178.266.491.368.696.102.205.26.547.35.76a14.336 14.336 0 01.685 2.034 15.775 15.775 0 01.297 1.52c.031.225.07.56.085.746.015.186.028.737.028 1.225 0 .487-.013 1.038-.028 1.224a17.7 17.7 0 01-.085.746c-.03.225-.095.598-.141.83-.047.233-.117.543-.155.69a14.336 14.336 0 01-.685 2.034c-.091.213-.249.555-.35.76-.103.205-.268.518-.368.696a16.109 16.109 0 01-.951 1.457c-.135.181-.383.494-.552.696a15.916 15.916 0 01-1.627 1.63c-.2.168-.502.41-.671.537-.17.128-.46.334-.645.458a15.12 15.12 0 01-.713.444 17.567 17.567 0 01-1.405.72c-.144.064-.375.16-.514.215a16.275 16.275 0 01-1.526.497c-.207.054-.535.132-.728.172-.165.035-.46.086-.7.124v-9.877h3.269l.031-.232c.018-.128.045-.315.061-.415.017-.101.048-.304.07-.45.021-.148.052-.35.069-.451.016-.1.048-.31.07-.465l.072-.464.069-.45c.021-.147.051-.344.066-.437l.057-.366a3.16 3.16 0 00.03-.246c0-.046-.11-.05-1.932-.05h-1.932V14.63c0-1.216.008-1.51.044-1.71a3.59 3.59 0 01.086-.368 2.7 2.7 0 01.127-.295c.047-.093.148-.248.225-.345.076-.097.148-.176.158-.176.01 0 .052-.03.092-.068.04-.037.14-.106.224-.153.082-.047.22-.112.304-.146a3.11 3.11 0 01.448-.114c.253-.046.439-.053 1.323-.053h1.03V9.496c0-1.343-.008-1.703-.035-1.703-.02 0-.117-.014-.218-.03-.1-.016-.27-.041-.378-.056a21.06 21.06 0 00-.602-.069 45.075 45.075 0 00-.84-.074 15.675 15.675 0 00-.966-.035 8.47 8.47 0 00-.812.033c-.154.019-.38.052-.504.075a6.066 6.066 0 00-.714.175.842.842 0 00-.18.07.114.114 0 01-.066.024c-.021 0-.12.038-.22.084a2.49 2.49 0 01-.193.085c-.006 0-.134.071-.285.159-.15.087-.371.233-.49.324a5.157 5.157 0 00-.395.34 5.25 5.25 0 00-.328.359c-.082.1-.21.276-.283.39a5.94 5.94 0 00-.287.52 5.71 5.71 0 00-.238.575 7.14 7.14 0 00-.14.493l-.085.372a6.263 6.263 0 00-.062.409c-.02.169-.037.968-.043 2.174l-.011 1.907h-3.554v4.025h3.556V30a14.364 14.364 0 01-1.274-.254 15.867 15.867 0 01-1.383-.43 16.89 16.89 0 01-.714-.283 16.6 16.6 0 01-1.5-.76 14.973 14.973 0 01-.71-.443 19.87 19.87 0 01-.65-.46 22.063 22.063 0 01-.671-.536 15.806 15.806 0 01-1.649-1.659 20.39 20.39 0 01-.539-.681 17.05 17.05 0 01-.497-.718 16.617 16.617 0 01-.453-.74c-.105-.186-.3-.566-.435-.844a15.76 15.76 0 01-.362-.802c-.065-.163-.172-.45-.239-.638a13.332 13.332 0 01-.358-1.192 15.854 15.854 0 01-.155-.69c-.047-.232-.11-.605-.142-.83-.03-.224-.069-.56-.084-.746A21.438 21.438 0 012 16.07c0-.488.013-1.039.029-1.225.015-.186.053-.521.084-.746a15.854 15.854 0 01.296-1.52c.04-.147.109-.4.155-.563a14.22 14.22 0 01.531-1.47 15.475 15.475 0 01.718-1.457c.1-.178.3-.504.444-.726.144-.22.368-.544.497-.717.13-.174.372-.48.539-.682a15.966 15.966 0 011.649-1.657c.2-.168.502-.41.672-.538.17-.128.46-.335.647-.46.186-.124.508-.324.714-.443a16.164 16.164 0 011.495-.758c.17-.073.39-.164.49-.203.1-.039.384-.138.63-.22a15.086 15.086 0 011.4-.39 13.5 13.5 0 011.148-.2z"/></symbol><symbol viewBox="0 0 22 22" id="file" xmlns="http://www.w3.org/2000/svg"><path d="M20.5 11.448l-7.76 7.65c-2.571 2.536-6.74 2.536-9.311 0a6.427 6.427 0 010-9.18l7.76-7.65a4.434 4.434 0 016.207 0 4.285 4.285 0 010 6.12l-7.76 7.65a2.217 2.217 0 01-3.104 0 2.142 2.142 0 010-3.06l7.76-7.65"/></symbol><symbol viewBox="0 0 32 32" id="insta" xmlns="http://www.w3.org/2000/svg"><path d="M28.9 10.6c-.1-1.4-.3-2.3-.6-3.2-.3-.9-.8-1.6-1.5-2.3-.7-.7-1.4-1.2-2.3-1.5-.8-.3-1.8-.5-3.2-.6H16c-3.5 0-4 0-5.4.1-1.3 0-2.3.3-3.1.6-.9.3-1.6.8-2.3 1.5-.7.7-1.2 1.4-1.5 2.3-.3.8-.5 1.8-.6 3.2C3 12 3 12.5 3 16s0 4 .1 5.4c.1 1.4.3 2.3.6 3.2.3.9.8 1.6 1.5 2.3.7.7 1.4 1.2 2.3 1.5.8.3 1.8.5 3.2.6H16c3.5 0 4 0 5.4-.1 1.4-.1 2.3-.3 3.2-.6.9-.3 1.6-.8 2.3-1.5.7-.7 1.2-1.4 1.5-2.3.3-.8.5-1.8.6-3.2V16c0-3.5 0-4-.1-5.4zM16 22.7a6.7 6.7 0 110-13.4 6.7 6.7 0 010 13.4zm6.9-12.1c-.9 0-1.6-.7-1.6-1.6 0-.9.7-1.6 1.6-1.6.9 0 1.6.7 1.6 1.6 0 .9-.7 1.6-1.6 1.6z"/><path d="M16 11.7c-2.4 0-4.3 1.9-4.3 4.3s1.9 4.3 4.3 4.3 4.3-1.9 4.3-4.3-1.9-4.3-4.3-4.3z"/></symbol><symbol viewBox="0 0 20.1 20.6" id="like" xmlns="http://www.w3.org/2000/svg"><path d="M8.7 1.3C9.1.2 10.4-.3 11.5.2l.4.2c2 1 3.1 3.1 2.7 5.3l-.3 1.9h1.9c2.6 0 4.6 2.5 3.9 5.1l-1.6 5.7c-.4 1.3-1.5 2.2-2.9 2.2H3c-1.7 0-3-1.3-3-3v-7c0-1.7 1.3-3 3-3h3.3l2.4-6.3zm2.2.9l-.4-.2-2.8 7.6H6v9h9.5c.5 0 .8-.3 1-.7l1.6-5.7c.3-1.3-.6-2.5-1.9-2.5h-4.3l.7-4.3c.1-1.3-.5-2.6-1.7-3.2zM4 18.6v-9H3c-.6 0-1 .4-1 1v7c0 .6.4 1 1 1h1z" fill-rule="evenodd" clip-rule="evenodd"/></symbol><symbol viewBox="0 0 20.1 20.6" id="like-fill" xmlns="http://www.w3.org/2000/svg"><path d="M16.1 7.6h-1.9l.3-1.9c.4-2.2-.7-4.3-2.7-5.3l-.4-.2C10.3-.3 9 .2 8.6 1.3L6.3 7.6H3c-1.7 0-3 1.3-3 3v7c0 1.7 1.3 3 3 3h12.5c1.4 0 2.5-.9 2.9-2.2l1.6-5.7c.6-2.6-1.3-5.1-3.9-5.1z"/></symbol><symbol viewBox="0 0 22 22" id="link" xmlns="http://www.w3.org/2000/svg"><path d="M8.1 22c-1.9 0-3.9-.7-5.4-2.2C1.3 18.4.5 16.5.5 14.5s.8-3.9 2.2-5.3l7.8-7.7c2.1-2.1 5.5-2.1 7.6 0 1 1 1.6 2.3 1.6 3.8 0 1.4-.6 2.8-1.6 3.8l-7.8 7.7C9.1 18 7 18 5.8 16.8c-.6-.6-.9-1.4-.9-2.2 0-.8.3-1.6.9-2.2l7.8-7.6c.4-.4 1-.4 1.4 0 .4.4.4 1 0 1.4l-7.8 7.6c-.2.2-.3.5-.3.8 0 .3.1.6.3.8.5.5 1.2.5 1.7 0l7.8-7.7c.6-.6 1-1.5 1-2.3 0-.9-.4-1.7-1-2.3-1.3-1.3-3.5-1.3-4.8 0l-7.8 7.7c-1.1 1-1.6 2.4-1.6 3.9s.6 2.8 1.6 3.9c2.2 2.1 5.7 2.1 7.9 0l7.8-7.7c.4-.4 1-.4 1.4 0 .4.4.4 1 0 1.4L13.4 20c-1.4 1.3-3.4 2-5.3 2z"/></symbol><symbol viewBox="0 0 93 93" id="play" xmlns="http://www.w3.org/2000/svg"><path d="M46.2 0C20.7 0 0 20.7 0 46.2c0 25.5 20.7 46.2 46.2 46.2s46.2-20.7 46.2-46.2C92.3 20.7 71.6 0 46.2 0zm0 90.2c-24.3 0-44.1-19.8-44.1-44.1S21.9 2 46.2 2s44.1 19.8 44.1 44.1c-.1 24.4-19.8 44.1-44.1 44.1z"/><path d="M38.5 27.9c-.7-.6-1.8-.2-1.8.8v9.8l6 4.6v6.2l-6 4.6v9.8c0 .9 1.1 1.4 1.8.8L56.9 47c.4-.4.4-1.1 0-1.5L38.5 27.9z"/></symbol><symbol viewBox="0 0 32 32" id="quote" xmlns="http://www.w3.org/2000/svg"><path d="M17 6h14v14H17zm-2 0H1v14h9.995c0 1.549-.003 2.541-.081 3.248a3.22 3.22 0 01-.103.568c-.09.028-.263.069-.566.103C9.539 23.997 8.548 24 7 24v4h.112c1.403 0 2.62 0 3.575-.106.965-.107 2.103-.36 2.974-1.23.87-.871 1.121-2.009 1.228-2.975.106-.955.111-1.785.111-3.189V6zm13.995 14c0 6 0 6-5.995 6"/></symbol><symbol viewBox="0 0 24 24" id="reddit" xmlns="http://www.w3.org/2000/svg"><path class="mst0" d="M10.5 13.2c0-.7-.6-1.2-1.2-1.2-.7 0-1.3.6-1.3 1.2s.6 1.3 1.2 1.2c.7.1 1.3-.5 1.3-1.2z"/><path class="mst0" d="M12 0C5.4 0 0 5.4 0 12s5.4 12 12 12 12-5.4 12-12S18.6 0 12 0zm7 13.6v.5c0 2.7-3.1 4.9-7 4.9s-7-2.2-7-4.9v-.5c-.6-.3-1-.9-1-1.6 0-1 .8-1.7 1.7-1.7.5 0 .9.2 1.2.5 1.2-.9 2.9-1.4 4.8-1.5l.9-4.2c0-.1.1-.2.1-.2.1 0 .1-.1.2 0l2.9.6c.3-.5.7-.7 1.2-.7.7 0 1.2.6 1.2 1.2 0 .7-.6 1.2-1.2 1.2-.7 0-1.2-.5-1.2-1.2l-2.6-.6-.8 3.8c1.8.1 3.5.6 4.7 1.5.3-.3.7-.5 1.2-.5 1 0 1.7.8 1.7 1.7 0 .8-.4 1.4-1 1.7z"/><path class="mst0" d="M14.5 16.1c-.5.5-1.7.7-2.5.7s-2-.2-2.5-.7c-.1-.1-.3-.1-.5 0-.1.1-.1.3 0 .5.8.8 2.5.9 3 .9s2.1-.1 3-.9c.1-.1.1-.3 0-.5-.2-.1-.4-.1-.5 0zm.2-4.1c-.7 0-1.2.6-1.2 1.2s.6 1.2 1.2 1.2c.7 0 1.2-.6 1.2-1.2.1-.6-.5-1.2-1.2-1.2z"/></symbol><symbol viewBox="0 0 33 32" id="reddit2" xmlns="http://www.w3.org/2000/svg"><path fill-rule="evenodd" clip-rule="evenodd" d="M30.001 16c0 7.732-6.268 14-14 14s-14-6.268-14-14 6.268-14 14-14 14 6.268 14 14zm-5.03-1.098c.226.322.354.704.368 1.098a2.043 2.043 0 01-1.134 1.862c.016.205.016.411 0 .616 0 3.136-3.654 5.684-8.162 5.684-4.508 0-8.162-2.548-8.162-5.684a4.019 4.019 0 010-.616 2.044 2.044 0 112.254-3.346 9.996 9.996 0 015.46-1.722l1.036-4.858a.436.436 0 01.518-.336l3.43.686a1.4 1.4 0 11-.182.854l-2.996-.63-.91 4.368a9.968 9.968 0 015.39 1.722 2.044 2.044 0 013.09.302zm-13.396 1.72a1.4 1.4 0 102.327 1.556 1.4 1.4 0 00-2.327-1.556zm4.44 5.706a5.376 5.376 0 003.458-1.078v.056a.39.39 0 00.007-.553.392.392 0 00-.553-.007c-.85.61-1.881.91-2.926.854a4.578 4.578 0 01-2.912-.882.377.377 0 00-.532.532 5.376 5.376 0 003.458 1.078zm2.428-3.708c.23.154.501.236.778.236l-.014.056a1.399 1.399 0 001.414-1.456 1.4 1.4 0 10-2.177 1.164z"/></symbol><symbol viewBox="0 0 32 32" id="search" xmlns="http://www.w3.org/2000/svg"><path d="M13.666 6.032a5.437 5.437 0 017.689 0l4.613 4.613a5.437 5.437 0 010 7.689l-4.613 4.613a5.437 5.437 0 01-7.689 0l-1.538-1.537-6.15 6.15-1.539-1.537 6.152-6.151-1.538-1.538a5.437 5.437 0 010-7.689l4.613-4.613zm10.764 6.15L19.817 7.57a3.262 3.262 0 00-4.613 0l-4.613 4.613a3.262 3.262 0 000 4.613l4.613 4.614a3.262 3.262 0 004.613 0l4.613-4.614a3.262 3.262 0 000-4.613z"/></symbol><symbol viewBox="0 0 19.2 19.2" id="share" xmlns="http://www.w3.org/2000/svg"><path d="M15.6 19.2c-.4 0-.7-.1-1-.2-.8-.2-1.5-.8-2-1.5s-.7-1.6-.6-2.4l-5.9-3c-.5.5-1.1.8-1.8.9-.7.1-1.4.1-2.1-.2-.7-.3-1.2-.7-1.6-1.3C.2 11 0 10.3 0 9.6s.2-1.4.6-2c.4-.6.9-1 1.6-1.3.6-.3 1.4-.4 2.1-.2.7.1 1.3.4 1.8.9L12 4c-.1-.7 0-1.5.4-2.1.3-.7.9-1.2 1.5-1.5.7-.3 1.4-.5 2.1-.4.7.1 1.4.4 2 .9.5.5.9 1.1 1.1 1.8.2.7.1 1.5-.1 2.1-.3.7-.7 1.3-1.3 1.7-1.4 1-3.3.8-4.5-.4l-5.9 3v.9l5.9 3c.6-.6 1.4-.9 2.3-1 .8 0 1.7.2 2.4.7s1.2 1.2 1.4 2.1c.2.8.1 1.7-.3 2.5s-1 1.4-1.8 1.7c-.6.1-1.1.2-1.6.2zm-1.5-4.4l-.1.6c0 .4 0 .8.2 1.1s.5.5.9.7c.4.1.8.1 1.1-.1.3-.1.6-.4.8-.8.2-.3.2-.7.1-1.1-.1-.4-.3-.7-.6-.9s-.6-.3-1-.3-.7.2-1 .4l-.4.4zM3.6 8c-.2 0-.4 0-.6.1-.3.1-.6.4-.7.6s-.3.6-.3.9.1.6.3.9c.2.3.4.5.7.6.3.1.6.2.9.1.3-.1.6-.2.8-.4l.4-.4.1-.6v-.4l-.1-.6-.4-.4c-.2-.2-.5-.3-.8-.4h-.3zm10.5-3.6l.4.4c.5.5 1.4.6 2 .2.3-.2.5-.4.6-.7.1-.3.1-.6.1-1-.1-.3-.2-.6-.5-.8s-.6-.4-.9-.5c-.3 0-.6 0-.9.2-.3.2-.5.4-.7.7-.2.2-.2.6-.2.9l.1.6z"/></symbol><symbol viewBox="0 0 32 32" id="steam" xmlns="http://www.w3.org/2000/svg"><path d="M15.976 2C8.609 2 2.573 7.67 2 14.877l7.517 3.103a3.946 3.946 0 012.455-.683l3.343-4.838v-.068c0-2.91 2.372-5.28 5.289-5.28 2.916 0 5.288 2.37 5.288 5.28a5.291 5.291 0 01-5.288 5.281l-.12-.002-4.768 3.395a3.971 3.971 0 01-7.857.97l-5.376-2.22C4.148 25.692 9.556 30 15.976 30 23.722 30 30 23.731 30 16c0-7.732-6.278-14-14.024-14zm-5.187 21.243l-1.723-.711a2.957 2.957 0 001.535 1.457 2.983 2.983 0 003.895-1.6 2.952 2.952 0 00.005-2.277 2.976 2.976 0 00-3.805-1.646l1.78.735a2.188 2.188 0 011.18 2.863 2.194 2.194 0 01-2.867 1.179zm13.339-10.851a3.526 3.526 0 00-3.524-3.52 3.526 3.526 0 00-3.525 3.52 3.525 3.525 0 007.049 0zm-6.166-.006a2.645 2.645 0 012.647-2.643 2.645 2.645 0 012.648 2.643 2.645 2.645 0 01-2.648 2.642 2.645 2.645 0 01-2.647-2.642z"/></symbol><symbol viewBox="0 0 32 32" id="telegram" xmlns="http://www.w3.org/2000/svg"><path d="M26.784 6.01s2.405-.925 2.204 1.32c-.066.925-.668 4.16-1.136 7.66L26.25 25.358s-.134 1.519-1.336 1.783c-1.203.264-3.007-.924-3.341-1.188-.267-.199-5.011-3.17-6.681-4.623-.468-.396-1.003-1.189.066-2.113l7.016-6.604c.802-.792 1.603-2.641-1.737-.396l-9.354 6.273s-1.07.66-3.074.066l-4.343-1.32s-1.603-.99 1.136-1.982c6.682-3.103 14.9-6.273 22.183-9.245z"/></symbol><symbol viewBox="0 0 32 32" id="twitch" xmlns="http://www.w3.org/2000/svg"><path fill-rule="evenodd" clip-rule="evenodd" d="M4.43 7.821L9.25 3h18.322v13.5l-8.678 8.679h-3.857L10.215 30v-4.821H4.43V7.82zm21.214 7.715l-3.857 3.857h-3.858l-3.857 3.857v-3.857h-3.857V4.929h15.429v10.607zM16 8.786h1.928v5.785H16V8.786zm6.75 0v5.785h-1.929V8.786h1.929z"/></symbol><symbol viewBox="0 0 24 24" id="twitter" xmlns="http://www.w3.org/2000/svg"><path d="M20.026 5.733a8.573 8.573 0 002.447-.673 8.762 8.762 0 01-2.13 2.228l-.003-.003v.008c.01.187.013.374.013.564 0 5.754-4.331 12.388-12.25 12.388-2.426 0-4.683-.718-6.583-1.945a8.585 8.585 0 006.36-1.81l-.003-.004-.004-.004v-.001h.004c-1.878-.035-3.465-1.29-4.015-3.013a4.275 4.275 0 001.939-.075l-.001-.005-.002-.005h.003c-1.969-.399-3.452-2.158-3.452-4.266v-.044a4.256 4.256 0 001.947.54v-.01l.002.001a4.357 4.357 0 01-1.914-3.62c0-.794.211-1.539.578-2.18 2.125 2.634 5.298 4.368 8.877 4.549v-.005l.001-.006V8.33l.005.017a4.288 4.288 0 01-.113-.99c0-2.402 1.928-4.35 4.303-4.35 1.239 0 2.356.528 3.141 1.373l-.003.003.008-.002a8.58 8.58 0 002.725-1.052 4.343 4.343 0 01-1.886 2.395l.003.005.003.004z"/></symbol><symbol viewBox="0 0 33 32" id="youtube" xmlns="http://www.w3.org/2000/svg"><path fill-rule="evenodd" clip-rule="evenodd" d="M28.474 7.2c.435.435.748.976.91 1.57.924 3.72.71 9.596.017 13.46a3.518 3.518 0 01-2.478 2.478c-2.173.592-10.918.592-10.918.592s-8.745 0-10.918-.592a3.52 3.52 0 01-2.478-2.477c-.93-3.705-.676-9.585-.018-13.444A3.517 3.517 0 015.069 6.31c2.173-.592 10.918-.61 10.918-.61s8.745 0 10.918.592a3.52 3.52 0 011.57.909zm-8.016 8.3l-7.254 4.2v-8.4l7.254 4.2z"/></symbol></svg>